<mxfile host="app.diagrams.net" modified="2022-04-25T12:32:31.751Z" agent="5.0 (Windows NT 10.0; Win64; x64) AppleWebKit/537.36 (KHTML, like Gecko) Chrome/100.0.4896.127 Safari/537.36" etag="Zs0tA5zIhDbcHdWi352M" version="17.4.6" type="github" pages="2">
  <diagram id="AKDUNLeBLl_5oY7XmHpM" name="Plaid 网关渠道跳转支付">
    <mxGraphModel dx="1693" dy="693" grid="1" gridSize="10" guides="1" tooltips="1" connect="1" arrows="1" fold="1" page="0" pageScale="1" pageWidth="827" pageHeight="1169" math="0" shadow="0">
      <root>
        <mxCell id="0" />
        <mxCell id="1" parent="0" />
        <mxCell id="fh08YaxcLFQR8nakMehG-3" value="2. 支付" style="edgeStyle=orthogonalEdgeStyle;rounded=0;orthogonalLoop=1;jettySize=auto;html=1;fontStyle=1;fontSize=12;fillColor=#e51400;strokeColor=#FF0000;fontColor=#FF0000;" parent="1" source="fh08YaxcLFQR8nakMehG-1" target="fh08YaxcLFQR8nakMehG-2" edge="1">
          <mxGeometry relative="1" as="geometry">
            <Array as="points">
              <mxPoint x="360" y="330" />
              <mxPoint x="360" y="330" />
            </Array>
          </mxGeometry>
        </mxCell>
        <mxCell id="fh08YaxcLFQR8nakMehG-12" value="2.11 跳转 Plaid 支付页面" style="edgeStyle=orthogonalEdgeStyle;rounded=0;orthogonalLoop=1;jettySize=auto;html=1;fontStyle=1;fontSize=12;fillColor=#e51400;strokeColor=#FF0000;fontColor=#FF0000;" parent="1" source="fh08YaxcLFQR8nakMehG-1" target="fh08YaxcLFQR8nakMehG-7" edge="1">
          <mxGeometry x="-0.6484" relative="1" as="geometry">
            <mxPoint x="590" y="350" as="targetPoint" />
            <Array as="points">
              <mxPoint x="700" y="270" />
              <mxPoint x="700" y="740" />
            </Array>
            <mxPoint as="offset" />
          </mxGeometry>
        </mxCell>
        <mxCell id="fh08YaxcLFQR8nakMehG-33" value="1.3 查询机构" style="edgeStyle=orthogonalEdgeStyle;rounded=0;orthogonalLoop=1;jettySize=auto;html=1;fontSize=12;fontColor=#00CC00;strokeColor=#00CC00;" parent="1" source="fh08YaxcLFQR8nakMehG-1" target="fh08YaxcLFQR8nakMehG-2" edge="1">
          <mxGeometry relative="1" as="geometry">
            <Array as="points">
              <mxPoint x="300" y="330" />
              <mxPoint x="300" y="330" />
            </Array>
          </mxGeometry>
        </mxCell>
        <mxCell id="h--6WcG9sEsCJQwLAEvs-10" value="4. 查询充值记录" style="edgeStyle=orthogonalEdgeStyle;rounded=0;orthogonalLoop=1;jettySize=auto;html=1;fontColor=#000000;strokeColor=#000000;" parent="1" source="fh08YaxcLFQR8nakMehG-1" target="fh08YaxcLFQR8nakMehG-2" edge="1">
          <mxGeometry relative="1" as="geometry">
            <mxPoint x="240" y="380" as="targetPoint" />
            <Array as="points">
              <mxPoint x="230" y="270" />
              <mxPoint x="230" y="370" />
            </Array>
            <mxPoint as="offset" />
          </mxGeometry>
        </mxCell>
        <mxCell id="2pAot6ls7ZYeoh-N1bBK-2" value="&lt;span style=&quot;font-family: helvetica; font-size: 11px; font-style: normal; font-weight: 400; letter-spacing: normal; text-align: center; text-indent: 0px; text-transform: none; word-spacing: 0px; background-color: rgb(255, 255, 255); display: inline; float: none;&quot;&gt;2.13. 查询订单&lt;/span&gt;" style="edgeStyle=orthogonalEdgeStyle;rounded=0;orthogonalLoop=1;jettySize=auto;html=1;strokeColor=#FF0000;fontColor=#FF0000;" edge="1" parent="1" source="fh08YaxcLFQR8nakMehG-1" target="fh08YaxcLFQR8nakMehG-2">
          <mxGeometry x="0.0769" y="40" relative="1" as="geometry">
            <Array as="points">
              <mxPoint x="460" y="280" />
              <mxPoint x="460" y="370" />
            </Array>
            <mxPoint as="offset" />
          </mxGeometry>
        </mxCell>
        <mxCell id="fh08YaxcLFQR8nakMehG-1" value="kucoin Web / kucoin App" style="rounded=0;whiteSpace=wrap;html=1;fontStyle=1;fontSize=12;" parent="1" vertex="1">
          <mxGeometry x="280" y="240" width="160" height="60" as="geometry" />
        </mxCell>
        <mxCell id="fh08YaxcLFQR8nakMehG-5" value="2.2 支付" style="edgeStyle=orthogonalEdgeStyle;rounded=0;orthogonalLoop=1;jettySize=auto;html=1;fontStyle=1;fontSize=12;fillColor=#e51400;strokeColor=#FF0000;fontColor=#FF0000;" parent="1" source="fh08YaxcLFQR8nakMehG-2" target="h--6WcG9sEsCJQwLAEvs-1" edge="1">
          <mxGeometry relative="1" as="geometry">
            <Array as="points" />
            <mxPoint x="390" y="450" as="targetPoint" />
          </mxGeometry>
        </mxCell>
        <mxCell id="fh08YaxcLFQR8nakMehG-23" value="2.10 返回" style="edgeStyle=orthogonalEdgeStyle;rounded=0;orthogonalLoop=1;jettySize=auto;html=1;fontStyle=1;fontSize=12;dashed=1;fillColor=#e51400;strokeColor=#FF0000;fontColor=#FF0000;" parent="1" source="fh08YaxcLFQR8nakMehG-2" target="fh08YaxcLFQR8nakMehG-1" edge="1">
          <mxGeometry relative="1" as="geometry">
            <Array as="points">
              <mxPoint x="410" y="320" />
              <mxPoint x="410" y="320" />
            </Array>
          </mxGeometry>
        </mxCell>
        <mxCell id="fh08YaxcLFQR8nakMehG-28" value="2.1 KYC 校验" style="edgeStyle=orthogonalEdgeStyle;rounded=0;orthogonalLoop=1;jettySize=auto;html=1;fontStyle=1;fontSize=12;strokeColor=#FF0000;fontColor=#FF0000;" parent="1" source="fh08YaxcLFQR8nakMehG-2" target="fh08YaxcLFQR8nakMehG-27" edge="1">
          <mxGeometry relative="1" as="geometry" />
        </mxCell>
        <mxCell id="fh08YaxcLFQR8nakMehG-34" value="1.4 查询机构 （分页、模糊匹配）" style="edgeStyle=orthogonalEdgeStyle;rounded=0;orthogonalLoop=1;jettySize=auto;html=1;fontSize=12;fontColor=#00CC00;strokeColor=#00CC00;" parent="1" source="fh08YaxcLFQR8nakMehG-2" target="h--6WcG9sEsCJQwLAEvs-3" edge="1">
          <mxGeometry x="-0.5833" relative="1" as="geometry">
            <Array as="points">
              <mxPoint y="390" />
              <mxPoint y="750" />
            </Array>
            <mxPoint x="320" y="440" as="targetPoint" />
            <mxPoint as="offset" />
          </mxGeometry>
        </mxCell>
        <mxCell id="h--6WcG9sEsCJQwLAEvs-11" value="&lt;span style=&quot;color: rgb(0 , 0 , 0) ; font-family: &amp;#34;helvetica&amp;#34; ; font-size: 11px ; font-style: normal ; font-weight: 400 ; letter-spacing: normal ; text-align: center ; text-indent: 0px ; text-transform: none ; word-spacing: 0px ; background-color: rgb(255 , 255 , 255) ; display: inline ; float: none&quot;&gt;4.1. 查询充值记录&lt;/span&gt;" style="edgeStyle=orthogonalEdgeStyle;rounded=0;orthogonalLoop=1;jettySize=auto;html=1;fontColor=#000000;strokeColor=#000000;" parent="1" source="fh08YaxcLFQR8nakMehG-2" target="h--6WcG9sEsCJQwLAEvs-1" edge="1">
          <mxGeometry relative="1" as="geometry">
            <Array as="points">
              <mxPoint x="300" y="440" />
              <mxPoint x="300" y="440" />
            </Array>
          </mxGeometry>
        </mxCell>
        <mxCell id="2pAot6ls7ZYeoh-N1bBK-3" value="&lt;span style=&quot;font-family: &amp;#34;helvetica&amp;#34; ; font-size: 11px ; font-style: normal ; font-weight: 400 ; letter-spacing: normal ; text-align: center ; text-indent: 0px ; text-transform: none ; word-spacing: 0px ; background-color: rgb(255 , 255 , 255) ; display: inline ; float: none&quot;&gt;2.14. 查询订单&lt;/span&gt;" style="edgeStyle=orthogonalEdgeStyle;rounded=0;orthogonalLoop=1;jettySize=auto;html=1;strokeColor=#FF0000;fontColor=#FF0000;" edge="1" parent="1" source="fh08YaxcLFQR8nakMehG-2" target="h--6WcG9sEsCJQwLAEvs-1">
          <mxGeometry x="0.2" y="50" relative="1" as="geometry">
            <Array as="points">
              <mxPoint x="460" y="400" />
              <mxPoint x="460" y="490" />
            </Array>
            <mxPoint as="offset" />
          </mxGeometry>
        </mxCell>
        <mxCell id="fh08YaxcLFQR8nakMehG-2" value="payment-api" style="rounded=0;whiteSpace=wrap;html=1;fontStyle=1;fontSize=12;fillColor=#fff2cc;strokeColor=#d6b656;" parent="1" vertex="1">
          <mxGeometry x="280" y="360" width="160" height="60" as="geometry" />
        </mxCell>
        <mxCell id="fh08YaxcLFQR8nakMehG-8" value="2.4 支付" style="edgeStyle=orthogonalEdgeStyle;rounded=0;orthogonalLoop=1;jettySize=auto;html=1;fontStyle=1;fontSize=12;fillColor=#e51400;strokeColor=#FF0000;fontColor=#FF0000;" parent="1" source="fh08YaxcLFQR8nakMehG-4" target="fh08YaxcLFQR8nakMehG-6" edge="1">
          <mxGeometry relative="1" as="geometry">
            <Array as="points">
              <mxPoint x="360" y="680" />
              <mxPoint x="360" y="680" />
            </Array>
          </mxGeometry>
        </mxCell>
        <mxCell id="fh08YaxcLFQR8nakMehG-22" value="2.9 返回" style="edgeStyle=orthogonalEdgeStyle;rounded=0;orthogonalLoop=1;jettySize=auto;html=1;fontStyle=1;fontSize=12;dashed=1;fillColor=#e51400;strokeColor=#FF0000;fontColor=#FF0000;" parent="1" source="h--6WcG9sEsCJQwLAEvs-1" target="fh08YaxcLFQR8nakMehG-2" edge="1">
          <mxGeometry relative="1" as="geometry">
            <Array as="points">
              <mxPoint x="410" y="470" />
              <mxPoint x="410" y="470" />
            </Array>
            <mxPoint x="460" y="450" as="sourcePoint" />
          </mxGeometry>
        </mxCell>
        <mxCell id="fh08YaxcLFQR8nakMehG-29" value="3.3 账务上分" style="edgeStyle=orthogonalEdgeStyle;rounded=0;orthogonalLoop=1;jettySize=auto;html=1;fontStyle=1;fontSize=12;fontColor=#0000FF;strokeColor=#0000FF;" parent="1" source="h--6WcG9sEsCJQwLAEvs-1" target="fh08YaxcLFQR8nakMehG-14" edge="1">
          <mxGeometry relative="1" as="geometry">
            <Array as="points">
              <mxPoint x="220" y="500" />
              <mxPoint x="220" y="470" />
            </Array>
            <mxPoint x="330" y="449.5" as="sourcePoint" />
            <mxPoint x="210" y="449.5" as="targetPoint" />
          </mxGeometry>
        </mxCell>
        <mxCell id="fh08YaxcLFQR8nakMehG-32" value="3.4 通知" style="edgeStyle=orthogonalEdgeStyle;rounded=0;orthogonalLoop=1;jettySize=auto;html=1;fontSize=12;fontColor=#0000FF;strokeColor=#0000FF;fontStyle=1" parent="1" source="h--6WcG9sEsCJQwLAEvs-1" target="fh08YaxcLFQR8nakMehG-31" edge="1">
          <mxGeometry relative="1" as="geometry">
            <Array as="points">
              <mxPoint x="220" y="520" />
              <mxPoint x="220" y="550" />
            </Array>
            <mxPoint x="320" y="550" as="sourcePoint" />
          </mxGeometry>
        </mxCell>
        <mxCell id="fh08YaxcLFQR8nakMehG-35" value="&lt;span style=&quot;font-size: 11px&quot;&gt;1.1 查询机构列表&lt;/span&gt;" style="edgeStyle=orthogonalEdgeStyle;rounded=0;orthogonalLoop=1;jettySize=auto;html=1;fontSize=12;fontColor=#00CC00;strokeColor=#00CC00;" parent="1" source="h--6WcG9sEsCJQwLAEvs-3" target="fh08YaxcLFQR8nakMehG-6" edge="1">
          <mxGeometry relative="1" as="geometry">
            <Array as="points">
              <mxPoint x="300" y="750" />
            </Array>
          </mxGeometry>
        </mxCell>
        <mxCell id="h--6WcG9sEsCJQwLAEvs-4" value="2.8 返回" style="edgeStyle=orthogonalEdgeStyle;rounded=0;orthogonalLoop=1;jettySize=auto;html=1;fontStyle=1;fontColor=#FF0000;strokeColor=#FF0000;" parent="1" source="fh08YaxcLFQR8nakMehG-4" target="h--6WcG9sEsCJQwLAEvs-1" edge="1">
          <mxGeometry relative="1" as="geometry">
            <Array as="points">
              <mxPoint x="410" y="580" />
              <mxPoint x="410" y="580" />
            </Array>
          </mxGeometry>
        </mxCell>
        <mxCell id="h--6WcG9sEsCJQwLAEvs-5" value="3.2 结果通知" style="edgeStyle=orthogonalEdgeStyle;rounded=0;orthogonalLoop=1;jettySize=auto;html=1;strokeColor=#0000FF;fontColor=#0000FF;fontStyle=1" parent="1" source="fh08YaxcLFQR8nakMehG-4" target="h--6WcG9sEsCJQwLAEvs-1" edge="1">
          <mxGeometry relative="1" as="geometry">
            <Array as="points">
              <mxPoint x="300" y="570" />
              <mxPoint x="300" y="570" />
            </Array>
          </mxGeometry>
        </mxCell>
        <mxCell id="h--6WcG9sEsCJQwLAEvs-12" value="&lt;font color=&quot;#ff0000&quot;&gt;2.16 查询&lt;/font&gt;&lt;br&gt;5.1 查询" style="edgeStyle=orthogonalEdgeStyle;rounded=0;orthogonalLoop=1;jettySize=auto;html=1;fontColor=#000000;strokeColor=#000000;" parent="1" source="fh08YaxcLFQR8nakMehG-4" target="fh08YaxcLFQR8nakMehG-6" edge="1">
          <mxGeometry relative="1" as="geometry">
            <Array as="points">
              <mxPoint x="300" y="690" />
              <mxPoint x="300" y="690" />
            </Array>
          </mxGeometry>
        </mxCell>
        <mxCell id="fh08YaxcLFQR8nakMehG-4" value="channel-core" style="rounded=0;whiteSpace=wrap;html=1;fontStyle=1;fontSize=12;fillColor=#fff2cc;strokeColor=#d6b656;" parent="1" vertex="1">
          <mxGeometry x="280" y="600" width="160" height="60" as="geometry" />
        </mxCell>
        <mxCell id="fh08YaxcLFQR8nakMehG-17" value="2.5 创建 Payment" style="edgeStyle=orthogonalEdgeStyle;rounded=0;orthogonalLoop=1;jettySize=auto;html=1;fontStyle=1;fontSize=12;fillColor=#e51400;strokeColor=#FF0000;fontColor=#FF0000;" parent="1" source="fh08YaxcLFQR8nakMehG-6" target="fh08YaxcLFQR8nakMehG-7" edge="1">
          <mxGeometry relative="1" as="geometry">
            <Array as="points">
              <mxPoint x="470" y="750" />
              <mxPoint x="470" y="750" />
            </Array>
          </mxGeometry>
        </mxCell>
        <mxCell id="fh08YaxcLFQR8nakMehG-18" value="2.6 创建 Link Token" style="edgeStyle=orthogonalEdgeStyle;rounded=0;orthogonalLoop=1;jettySize=auto;html=1;fontStyle=1;fontSize=12;fillColor=#e51400;strokeColor=#FF0000;fontColor=#FF0000;" parent="1" source="fh08YaxcLFQR8nakMehG-6" target="fh08YaxcLFQR8nakMehG-7" edge="1">
          <mxGeometry relative="1" as="geometry">
            <Array as="points">
              <mxPoint x="460" y="770" />
              <mxPoint x="460" y="770" />
            </Array>
          </mxGeometry>
        </mxCell>
        <mxCell id="fh08YaxcLFQR8nakMehG-21" value="2.7 返回" style="edgeStyle=orthogonalEdgeStyle;rounded=0;orthogonalLoop=1;jettySize=auto;html=1;fontStyle=1;fontSize=12;dashed=1;fillColor=#e51400;strokeColor=#FF0000;fontColor=#FF0000;" parent="1" source="fh08YaxcLFQR8nakMehG-6" target="fh08YaxcLFQR8nakMehG-4" edge="1">
          <mxGeometry relative="1" as="geometry">
            <Array as="points">
              <mxPoint x="410" y="670" />
              <mxPoint x="410" y="670" />
            </Array>
          </mxGeometry>
        </mxCell>
        <mxCell id="fh08YaxcLFQR8nakMehG-40" value="&lt;span style=&quot;font-size: 11px;&quot;&gt;1.2 查询机构列表&lt;/span&gt;" style="edgeStyle=orthogonalEdgeStyle;rounded=0;orthogonalLoop=1;jettySize=auto;html=1;fontSize=12;fontColor=#00CC00;strokeColor=#00CC00;" parent="1" source="fh08YaxcLFQR8nakMehG-6" target="fh08YaxcLFQR8nakMehG-7" edge="1">
          <mxGeometry relative="1" as="geometry">
            <Array as="points">
              <mxPoint x="520" y="730" />
              <mxPoint x="520" y="730" />
            </Array>
          </mxGeometry>
        </mxCell>
        <mxCell id="h--6WcG9sEsCJQwLAEvs-13" value="&lt;font color=&quot;#ff0000&quot;&gt;2.17 查询&lt;/font&gt;&lt;br&gt;5.2 查询" style="edgeStyle=orthogonalEdgeStyle;rounded=0;orthogonalLoop=1;jettySize=auto;html=1;entryX=0.608;entryY=1;entryDx=0;entryDy=0;entryPerimeter=0;fontColor=#000000;strokeColor=#000000;" parent="1" source="fh08YaxcLFQR8nakMehG-6" target="fh08YaxcLFQR8nakMehG-7" edge="1">
          <mxGeometry relative="1" as="geometry">
            <Array as="points">
              <mxPoint x="410" y="800" />
              <mxPoint x="633" y="800" />
            </Array>
          </mxGeometry>
        </mxCell>
        <mxCell id="fh08YaxcLFQR8nakMehG-6" value="payment-channel-plaid" style="rounded=0;whiteSpace=wrap;html=1;fontStyle=1;fontSize=12;" parent="1" vertex="1">
          <mxGeometry x="280" y="720" width="160" height="60" as="geometry" />
        </mxCell>
        <mxCell id="fh08YaxcLFQR8nakMehG-15" value="3. Webhook 回调" style="edgeStyle=orthogonalEdgeStyle;rounded=0;orthogonalLoop=1;jettySize=auto;html=1;fontStyle=1;fontSize=12;fontColor=#0000FF;strokeColor=#0000FF;" parent="1" source="fh08YaxcLFQR8nakMehG-7" target="fh08YaxcLFQR8nakMehG-11" edge="1">
          <mxGeometry relative="1" as="geometry" />
        </mxCell>
        <mxCell id="2pAot6ls7ZYeoh-N1bBK-1" value="2.12 回调" style="edgeStyle=orthogonalEdgeStyle;rounded=0;orthogonalLoop=1;jettySize=auto;html=1;strokeColor=#FF0000;fontColor=#FF0000;" edge="1" parent="1" source="fh08YaxcLFQR8nakMehG-7" target="fh08YaxcLFQR8nakMehG-1">
          <mxGeometry x="0.4943" relative="1" as="geometry">
            <Array as="points">
              <mxPoint x="740" y="760" />
              <mxPoint x="740" y="250" />
            </Array>
            <mxPoint as="offset" />
          </mxGeometry>
        </mxCell>
        <mxCell id="fh08YaxcLFQR8nakMehG-7" value="Plaid" style="rounded=0;whiteSpace=wrap;html=1;fontStyle=1;fontSize=12;" parent="1" vertex="1">
          <mxGeometry x="560" y="720" width="120" height="60" as="geometry" />
        </mxCell>
        <mxCell id="fh08YaxcLFQR8nakMehG-16" value="3.1 结果回调" style="edgeStyle=orthogonalEdgeStyle;rounded=0;orthogonalLoop=1;jettySize=auto;html=1;fontStyle=1;fontSize=12;fontColor=#0000FF;strokeColor=#0000FF;" parent="1" source="fh08YaxcLFQR8nakMehG-11" target="fh08YaxcLFQR8nakMehG-4" edge="1">
          <mxGeometry relative="1" as="geometry">
            <Array as="points">
              <mxPoint x="540" y="640" />
              <mxPoint x="540" y="640" />
            </Array>
          </mxGeometry>
        </mxCell>
        <mxCell id="fh08YaxcLFQR8nakMehG-11" value="channel-callback" style="rounded=0;whiteSpace=wrap;html=1;fontStyle=1;fontSize=12;" parent="1" vertex="1">
          <mxGeometry x="560" y="600" width="120" height="60" as="geometry" />
        </mxCell>
        <mxCell id="h--6WcG9sEsCJQwLAEvs-9" value="1.定期查询机构列表" style="edgeStyle=orthogonalEdgeStyle;rounded=0;orthogonalLoop=1;jettySize=auto;html=1;fontColor=#00CC00;strokeColor=#00CC00;" parent="1" source="fh08YaxcLFQR8nakMehG-13" target="h--6WcG9sEsCJQwLAEvs-3" edge="1">
          <mxGeometry relative="1" as="geometry" />
        </mxCell>
        <mxCell id="fh08YaxcLFQR8nakMehG-13" value="batch-job" style="rounded=0;whiteSpace=wrap;html=1;fontStyle=1;fontSize=12;" parent="1" vertex="1">
          <mxGeometry x="40" y="600" width="120" height="60" as="geometry" />
        </mxCell>
        <mxCell id="fh08YaxcLFQR8nakMehG-30" value="5. 过期查询" style="edgeStyle=orthogonalEdgeStyle;rounded=0;orthogonalLoop=1;jettySize=auto;html=1;fontStyle=1;fontSize=12;exitX=1;exitY=0.5;exitDx=0;exitDy=0;" parent="1" source="fh08YaxcLFQR8nakMehG-13" target="fh08YaxcLFQR8nakMehG-4" edge="1">
          <mxGeometry relative="1" as="geometry">
            <Array as="points" />
            <mxPoint x="170" y="629.5" as="sourcePoint" />
            <mxPoint x="310" y="629.5" as="targetPoint" />
          </mxGeometry>
        </mxCell>
        <mxCell id="fh08YaxcLFQR8nakMehG-14" value="payment-&lt;br&gt;accounting" style="rounded=0;whiteSpace=wrap;html=1;fontStyle=1;fontSize=12;" parent="1" vertex="1">
          <mxGeometry x="40" y="440" width="120" height="60" as="geometry" />
        </mxCell>
        <mxCell id="fh08YaxcLFQR8nakMehG-27" value="u-center" style="rounded=0;whiteSpace=wrap;html=1;fontStyle=1;fontSize=12;" parent="1" vertex="1">
          <mxGeometry x="560" y="360" width="120" height="60" as="geometry" />
        </mxCell>
        <mxCell id="fh08YaxcLFQR8nakMehG-31" value="notify-center" style="rounded=0;whiteSpace=wrap;html=1;fontStyle=1;fontSize=12;" parent="1" vertex="1">
          <mxGeometry x="40" y="520" width="120" height="60" as="geometry" />
        </mxCell>
        <mxCell id="h--6WcG9sEsCJQwLAEvs-2" value="2.3 支付" style="edgeStyle=orthogonalEdgeStyle;rounded=0;orthogonalLoop=1;jettySize=auto;html=1;fontStyle=1;fontColor=#FF0000;strokeColor=#FF0000;" parent="1" source="h--6WcG9sEsCJQwLAEvs-1" target="fh08YaxcLFQR8nakMehG-4" edge="1">
          <mxGeometry relative="1" as="geometry" />
        </mxCell>
        <mxCell id="2pAot6ls7ZYeoh-N1bBK-4" value="&lt;span style=&quot;color: rgb(255 , 0 , 0) ; font-family: &amp;#34;helvetica&amp;#34; ; font-size: 11px ; font-style: normal ; font-weight: 400 ; letter-spacing: normal ; text-align: center ; text-indent: 0px ; text-transform: none ; word-spacing: 0px ; background-color: rgb(255 , 255 , 255) ; display: inline ; float: none&quot;&gt;2.15 查询订单&lt;/span&gt;" style="edgeStyle=orthogonalEdgeStyle;rounded=0;orthogonalLoop=1;jettySize=auto;html=1;fontColor=#FF0000;strokeColor=#FF0000;" edge="1" parent="1" source="h--6WcG9sEsCJQwLAEvs-1" target="fh08YaxcLFQR8nakMehG-4">
          <mxGeometry x="-0.0667" y="50" relative="1" as="geometry">
            <Array as="points">
              <mxPoint x="460" y="510" />
              <mxPoint x="460" y="620" />
            </Array>
            <mxPoint as="offset" />
          </mxGeometry>
        </mxCell>
        <mxCell id="h--6WcG9sEsCJQwLAEvs-1" value="payment-core" style="rounded=0;whiteSpace=wrap;html=1;fontStyle=1;fontSize=12;fillColor=#dae8fc;strokeColor=#6c8ebf;" parent="1" vertex="1">
          <mxGeometry x="280" y="480" width="160" height="60" as="geometry" />
        </mxCell>
        <mxCell id="h--6WcG9sEsCJQwLAEvs-16" value="0. 为GBP、EUR各生成一个 Recipient&lt;br&gt;并将PLAID-CLIENT-ID /&amp;nbsp;PLAID-SECRET加密&lt;br&gt;配置在系统" style="edgeStyle=orthogonalEdgeStyle;rounded=0;orthogonalLoop=1;jettySize=auto;html=1;fontColor=#000000;strokeColor=#000000;" parent="1" source="h--6WcG9sEsCJQwLAEvs-3" target="h--6WcG9sEsCJQwLAEvs-3" edge="1">
          <mxGeometry y="-10" relative="1" as="geometry">
            <Array as="points">
              <mxPoint x="60" y="800" />
              <mxPoint x="140" y="800" />
            </Array>
            <mxPoint as="offset" />
          </mxGeometry>
        </mxCell>
        <mxCell id="h--6WcG9sEsCJQwLAEvs-3" value="payment-channel-config" style="rounded=0;whiteSpace=wrap;html=1;fontStyle=1;fontSize=12;fillColor=#dae8fc;strokeColor=#6c8ebf;" parent="1" vertex="1">
          <mxGeometry x="40" y="720" width="120" height="60" as="geometry" />
        </mxCell>
      </root>
    </mxGraphModel>
  </diagram>
  <diagram id="s1ZR7lenBuxyFX8-3sta" name="状态机">
    <mxGraphModel dx="1422" dy="762" grid="1" gridSize="10" guides="1" tooltips="1" connect="1" arrows="1" fold="1" page="1" pageScale="1" pageWidth="827" pageHeight="1169" math="0" shadow="0">
      <root>
        <mxCell id="0" />
        <mxCell id="1" parent="0" />
        <mxCell id="IF9elcWDsAywVQMF-QJl-13" value="channel-core payin&amp;nbsp;状态机" style="rounded=0;whiteSpace=wrap;html=1;fillColor=#dae8fc;strokeColor=#6c8ebf;" vertex="1" parent="1">
          <mxGeometry x="120" y="40" width="520" height="40" as="geometry" />
        </mxCell>
        <mxCell id="IF9elcWDsAywVQMF-QJl-14" value="" style="edgeStyle=orthogonalEdgeStyle;rounded=0;orthogonalLoop=1;jettySize=auto;html=1;fontColor=#000000;strokeColor=#000000;" edge="1" parent="1" source="IF9elcWDsAywVQMF-QJl-17" target="IF9elcWDsAywVQMF-QJl-21">
          <mxGeometry relative="1" as="geometry" />
        </mxCell>
        <mxCell id="IF9elcWDsAywVQMF-QJl-15" value="渠道支付失败&lt;br&gt;系统异常" style="edgeStyle=orthogonalEdgeStyle;rounded=0;orthogonalLoop=1;jettySize=auto;html=1;fontColor=#000000;strokeColor=#000000;" edge="1" parent="1" source="IF9elcWDsAywVQMF-QJl-17" target="IF9elcWDsAywVQMF-QJl-24">
          <mxGeometry x="-0.52" relative="1" as="geometry">
            <Array as="points">
              <mxPoint x="180" y="910" />
            </Array>
            <mxPoint as="offset" />
          </mxGeometry>
        </mxCell>
        <mxCell id="IF9elcWDsAywVQMF-QJl-16" style="edgeStyle=orthogonalEdgeStyle;rounded=0;orthogonalLoop=1;jettySize=auto;html=1;fontColor=#000000;strokeColor=#000000;" edge="1" parent="1" source="IF9elcWDsAywVQMF-QJl-17" target="IF9elcWDsAywVQMF-QJl-23">
          <mxGeometry relative="1" as="geometry">
            <Array as="points">
              <mxPoint x="180" y="630" />
            </Array>
          </mxGeometry>
        </mxCell>
        <mxCell id="IF9elcWDsAywVQMF-QJl-26" value="过期未支付" style="edgeLabel;html=1;align=center;verticalAlign=middle;resizable=0;points=[];fontColor=#000000;" vertex="1" connectable="0" parent="IF9elcWDsAywVQMF-QJl-16">
          <mxGeometry x="-0.456" relative="1" as="geometry">
            <mxPoint as="offset" />
          </mxGeometry>
        </mxCell>
        <mxCell id="IF9elcWDsAywVQMF-QJl-17" value="CREATED" style="rounded=0;whiteSpace=wrap;html=1;fillColor=#dae8fc;strokeColor=#6c8ebf;" vertex="1" parent="1">
          <mxGeometry x="120" y="740" width="120" height="60" as="geometry" />
        </mxCell>
        <mxCell id="IF9elcWDsAywVQMF-QJl-18" value="支付成功" style="edgeStyle=orthogonalEdgeStyle;rounded=0;orthogonalLoop=1;jettySize=auto;html=1;fontColor=#000000;strokeColor=#000000;" edge="1" parent="1" source="IF9elcWDsAywVQMF-QJl-21" target="IF9elcWDsAywVQMF-QJl-22">
          <mxGeometry relative="1" as="geometry" />
        </mxCell>
        <mxCell id="IF9elcWDsAywVQMF-QJl-19" value="&lt;span style=&quot;color: rgb(0 , 0 , 0) ; font-family: &amp;#34;helvetica&amp;#34; ; font-size: 11px ; font-style: normal ; font-weight: 400 ; letter-spacing: normal ; text-align: center ; text-indent: 0px ; text-transform: none ; word-spacing: 0px ; background-color: rgb(255 , 255 , 255) ; display: inline ; float: none&quot;&gt;过期未支付&lt;/span&gt;" style="edgeStyle=orthogonalEdgeStyle;rounded=0;orthogonalLoop=1;jettySize=auto;html=1;fontColor=#000000;strokeColor=#000000;" edge="1" parent="1" source="IF9elcWDsAywVQMF-QJl-21" target="IF9elcWDsAywVQMF-QJl-23">
          <mxGeometry relative="1" as="geometry" />
        </mxCell>
        <mxCell id="IF9elcWDsAywVQMF-QJl-20" value="支付失败" style="edgeStyle=orthogonalEdgeStyle;rounded=0;orthogonalLoop=1;jettySize=auto;html=1;fontColor=#000000;strokeColor=#000000;" edge="1" parent="1" source="IF9elcWDsAywVQMF-QJl-21" target="IF9elcWDsAywVQMF-QJl-24">
          <mxGeometry relative="1" as="geometry" />
        </mxCell>
        <mxCell id="IF9elcWDsAywVQMF-QJl-21" value="PROCESSING" style="rounded=0;whiteSpace=wrap;html=1;fontColor=#000000;" vertex="1" parent="1">
          <mxGeometry x="320" y="740" width="120" height="60" as="geometry" />
        </mxCell>
        <mxCell id="IF9elcWDsAywVQMF-QJl-22" value="PAYIN_COMPLETED" style="rounded=0;whiteSpace=wrap;html=1;fillColor=#fff2cc;strokeColor=#d6b656;" vertex="1" parent="1">
          <mxGeometry x="520" y="740" width="120" height="60" as="geometry" />
        </mxCell>
        <mxCell id="IF9elcWDsAywVQMF-QJl-23" value="EXPIRED" style="rounded=0;whiteSpace=wrap;html=1;fillColor=#f8cecc;strokeColor=#b85450;" vertex="1" parent="1">
          <mxGeometry x="320" y="600" width="120" height="60" as="geometry" />
        </mxCell>
        <mxCell id="IF9elcWDsAywVQMF-QJl-24" value="FALIED" style="rounded=0;whiteSpace=wrap;html=1;fillColor=#f8cecc;strokeColor=#b85450;" vertex="1" parent="1">
          <mxGeometry x="320" y="880" width="120" height="60" as="geometry" />
        </mxCell>
        <mxCell id="IF9elcWDsAywVQMF-QJl-25" value="payment-core payin 状态机" style="rounded=0;whiteSpace=wrap;html=1;fillColor=#dae8fc;strokeColor=#6c8ebf;" vertex="1" parent="1">
          <mxGeometry x="120" y="520" width="520" height="40" as="geometry" />
        </mxCell>
        <mxCell id="IF9elcWDsAywVQMF-QJl-27" value="" style="edgeStyle=orthogonalEdgeStyle;rounded=0;orthogonalLoop=1;jettySize=auto;html=1;fontColor=#000000;strokeColor=#000000;" edge="1" parent="1" source="IF9elcWDsAywVQMF-QJl-31" target="IF9elcWDsAywVQMF-QJl-35">
          <mxGeometry relative="1" as="geometry" />
        </mxCell>
        <mxCell id="IF9elcWDsAywVQMF-QJl-28" value="渠道支付失败&lt;br&gt;系统异常" style="edgeStyle=orthogonalEdgeStyle;rounded=0;orthogonalLoop=1;jettySize=auto;html=1;fontColor=#000000;strokeColor=#000000;" edge="1" parent="1" source="IF9elcWDsAywVQMF-QJl-31" target="IF9elcWDsAywVQMF-QJl-38">
          <mxGeometry x="-0.52" relative="1" as="geometry">
            <Array as="points">
              <mxPoint x="180" y="430" />
            </Array>
            <mxPoint as="offset" />
          </mxGeometry>
        </mxCell>
        <mxCell id="IF9elcWDsAywVQMF-QJl-29" style="edgeStyle=orthogonalEdgeStyle;rounded=0;orthogonalLoop=1;jettySize=auto;html=1;fontColor=#000000;strokeColor=#000000;" edge="1" parent="1" source="IF9elcWDsAywVQMF-QJl-31" target="IF9elcWDsAywVQMF-QJl-37">
          <mxGeometry relative="1" as="geometry">
            <Array as="points">
              <mxPoint x="180" y="150" />
            </Array>
          </mxGeometry>
        </mxCell>
        <mxCell id="IF9elcWDsAywVQMF-QJl-30" value="过期未支付" style="edgeLabel;html=1;align=center;verticalAlign=middle;resizable=0;points=[];fontColor=#000000;" vertex="1" connectable="0" parent="IF9elcWDsAywVQMF-QJl-29">
          <mxGeometry x="-0.456" relative="1" as="geometry">
            <mxPoint as="offset" />
          </mxGeometry>
        </mxCell>
        <mxCell id="IF9elcWDsAywVQMF-QJl-31" value="CREATED" style="rounded=0;whiteSpace=wrap;html=1;fillColor=#dae8fc;strokeColor=#6c8ebf;" vertex="1" parent="1">
          <mxGeometry x="120" y="260" width="120" height="60" as="geometry" />
        </mxCell>
        <mxCell id="IF9elcWDsAywVQMF-QJl-32" value="支付成功" style="edgeStyle=orthogonalEdgeStyle;rounded=0;orthogonalLoop=1;jettySize=auto;html=1;fontColor=#000000;strokeColor=#000000;" edge="1" parent="1" source="IF9elcWDsAywVQMF-QJl-35" target="IF9elcWDsAywVQMF-QJl-36">
          <mxGeometry relative="1" as="geometry" />
        </mxCell>
        <mxCell id="IF9elcWDsAywVQMF-QJl-33" value="&lt;span style=&quot;color: rgb(0 , 0 , 0) ; font-family: &amp;#34;helvetica&amp;#34; ; font-size: 11px ; font-style: normal ; font-weight: 400 ; letter-spacing: normal ; text-align: center ; text-indent: 0px ; text-transform: none ; word-spacing: 0px ; background-color: rgb(255 , 255 , 255) ; display: inline ; float: none&quot;&gt;过期未支付&lt;/span&gt;" style="edgeStyle=orthogonalEdgeStyle;rounded=0;orthogonalLoop=1;jettySize=auto;html=1;fontColor=#000000;strokeColor=#000000;" edge="1" parent="1" source="IF9elcWDsAywVQMF-QJl-35" target="IF9elcWDsAywVQMF-QJl-37">
          <mxGeometry relative="1" as="geometry" />
        </mxCell>
        <mxCell id="IF9elcWDsAywVQMF-QJl-34" value="支付失败" style="edgeStyle=orthogonalEdgeStyle;rounded=0;orthogonalLoop=1;jettySize=auto;html=1;fontColor=#000000;strokeColor=#000000;" edge="1" parent="1" source="IF9elcWDsAywVQMF-QJl-35" target="IF9elcWDsAywVQMF-QJl-38">
          <mxGeometry relative="1" as="geometry" />
        </mxCell>
        <mxCell id="IF9elcWDsAywVQMF-QJl-35" value="PROCESSING" style="rounded=0;whiteSpace=wrap;html=1;fontColor=#000000;" vertex="1" parent="1">
          <mxGeometry x="320" y="260" width="120" height="60" as="geometry" />
        </mxCell>
        <mxCell id="IF9elcWDsAywVQMF-QJl-36" value="SUCCEEDED" style="rounded=0;whiteSpace=wrap;html=1;fillColor=#f8cecc;strokeColor=#b85450;" vertex="1" parent="1">
          <mxGeometry x="520" y="260" width="120" height="60" as="geometry" />
        </mxCell>
        <mxCell id="IF9elcWDsAywVQMF-QJl-37" value="EXPIRED" style="rounded=0;whiteSpace=wrap;html=1;fillColor=#f8cecc;strokeColor=#b85450;" vertex="1" parent="1">
          <mxGeometry x="320" y="120" width="120" height="60" as="geometry" />
        </mxCell>
        <mxCell id="IF9elcWDsAywVQMF-QJl-38" value="FALIED" style="rounded=0;whiteSpace=wrap;html=1;fillColor=#f8cecc;strokeColor=#b85450;" vertex="1" parent="1">
          <mxGeometry x="320" y="400" width="120" height="60" as="geometry" />
        </mxCell>
      </root>
    </mxGraphModel>
  </diagram>
</mxfile>
